<svg xmlns="http://www.w3.org/2000/svg" width="4.4in" height="1.6in" viewBox="0 0 319 117"><path fill="#347ea5" d="M54.8 62a23 23 0 0 1-12.7 5.5v11.8H31.5V67.5a45 45 0 0 1-10.9-3.1 36.5 36.5 0 0 1-9.2-5.6l5.7-11.4a35.2 35.2 0 0 0 10 6.1 27.3 27.3 0 0 0 10.2 2.4 9.5 9.5 0 0 0 5.1-1.2 3.9 3.9 0 0 0 1.9-3.5 4.1 4.1 0 0 0-1.4-3.2 10.3 10.3 0 0 0-3.5-2l-5.9-1.8A73.1 73.1 0 0 1 24 41a16.8 16.8 0 0 1-6.4-5 13.6 13.6 0 0 1-2.6-8.8 15.1 15.1 0 0 1 4.4-11.1q4.4-4.4 12.1-5.6V-.8h10.6v11.2a44.7 44.7 0 0 1 9.3 2.1 37.1 37.1 0 0 1 8.1 3.9L54.1 28a49 49 0 0 0-9.5-4.3 28 28 0 0 0-8.5-1.7 7.8 7.8 0 0 0-4.3 1 3.2 3.2 0 0 0-1.6 2.9 4 4 0 0 0 1.4 3.1 10.3 10.3 0 0 0 3.3 2l5.9 2a76.7 76.7 0 0 1 9.6 3.3 16.8 16.8 0 0 1 6.5 5.1 14.3 14.3 0 0 1 2.7 9A15 15 0 0 1 54.8 62z"/><path fill="#347ea5" d="M59.6 16.7H103v95.7H78V37.2H59.6zm136.8 11.8q11 12.6 11 36.1t-11 36.1q-11 12.6-31.3 12.6t-31.6-12.6q-11-12.6-11-36.1t11-36.1q11-12.6 31.6-12.6t31.3 12.6zm-44.4 13q-4 7-4 23t4 23.1q4 7 13 7t12.8-7.1q4-7.1 4-23.1t-4-23q-4-7-12.8-7t-13 7.1zm140.4-13q11 12.6 11 36.1t-11 36.1q-11 12.6-31.3 12.6t-31.6-12.6q-11-12.6-11-36.1t11-36.1q11-12.6 31.6-12.6t31.3 12.6zm-44.4 13q-4 7-4 23t4 23.1q4 7 13 7t12.8-7.1q4-7.1 4-23.1t-4-23q-4-7-12.8-7t-13 7.1z"/></svg>