<svg xmlns="http://www.w3.org/2000/svg" width="4.4in" height="1.6in" viewBox="0 0 319 117"><path fill="#347ea5" d="M65.1 62a23 23 0 0 1-12.7 5.5v11.8H41.8V67.5A45 45 0 0 1 31 64.3a36.5 36.5 0 0 1-9.2-5.6l5.7-11.4a35.2 35.2 0 0 0 10 6.1 27.3 27.3 0 0 0 10.2 2.4 9.5 9.5 0 0 0 5.1-1.2 3.9 3.9 0 0 0 1.9-3.5 4.1 4.1 0 0 0-1.4-3.1 10.3 10.3 0 0 0-3.5-2l-5.9-1.8a73.1 73.1 0 0 1-9.6-3.2 16.8 16.8 0 0 1-6.4-5 13.6 13.6 0 0 1-2.7-8.8 15.1 15.1 0 0 1 4.4-11.1q4.4-4.4 12.1-5.6V-.8h10.7v11.2a44.7 44.7 0 0 1 9.3 2.1 37.1 37.1 0 0 1 8.1 3.9L64.4 28a49 49 0 0 0-9.5-4.3 28 28 0 0 0-8.5-1.7 7.8 7.8 0 0 0-4.3 1 3.2 3.2 0 0 0-1.6 2.9 4 4 0 0 0 1.4 3.1 10.3 10.3 0 0 0 3.3 2l5.9 2a76.7 76.7 0 0 1 9.6 3.3 16.8 16.8 0 0 1 6.5 5.1 14.3 14.3 0 0 1 2.7 9A15 15 0 0 1 65.1 62z"/><path fill="#347ea5" d="M69.9 16.7h43.4v95.7h-25V37.2H69.9zm116.3 19.5a35.9 35.9 0 0 0-10.6-1.6q-11.1 0-16.6 6.6t-5.3 18.5Q161 49.5 176 49.5a32.1 32.1 0 0 1 16 3.9 26.8 26.8 0 0 1 10.7 10.9 34.2 34.2 0 0 1 3.8 16.3 33.8 33.8 0 0 1-4.4 17.4 29.2 29.2 0 0 1-12.4 11.5 40.6 40.6 0 0 1-18.5 4q-12.6 0-21.7-5.7a37.1 37.1 0 0 1-14.1-16.5q-4.9-10.7-4.9-25.2t5.4-26.6a40.9 40.9 0 0 1 15.2-17.7q9.8-6.2 22.9-6.2a63.2 63.2 0 0 1 16.2 2.2 56.4 56.4 0 0 1 14.3 5.7l-9.3 17.2a29 29 0 0 0-9-4.5zm-26.1 35a13 13 0 0 0-3.8 9.6 13 13 0 0 0 3.6 9.4q3.6 3.7 10.4 3.7t10.1-3.5q3.7-3.5 3.7-9.9t-3.6-9.6q-3.6-3.5-9.8-3.5t-10.6 3.7zm116.2-16.1a30.1 30.1 0 0 1 13 10.2 25.6 25.6 0 0 1 4.6 15 31.9 31.9 0 0 1-4.8 17.5 31.2 31.2 0 0 1-13.7 11.6 48.8 48.8 0 0 1-20.6 4.1 64.2 64.2 0 0 1-19.7-3.3 71.5 71.5 0 0 1-18.1-8.6l9.3-18q13.2 10.7 25.8 10.7 7.1 0 11.1-3.2a10.7 10.7 0 0 0 4-8.8q0-5.6-3.9-8.5t-11.7-2.9q-18.2 0-26.2.5V16.7h64.3v20.1h-41.5v14.6h8.6a48 48 0 0 1 19.5 3.7z"/></svg>