<svg id="Layer_1" data-name="Layer 1" xmlns="http://www.w3.org/2000/svg" width="256" height="256" viewBox="0 0 256 256"><title>colonies</title><path d="M67,46.1c4.9-7.6,7.6-17.6,5.6-19.2S58.4,30.8,51.6,37.3a33.1,33.1,0,0,0-21,0c-6.8-6.5-18.9-12-21.1-10.4s.7,11.6,5.6,19.2C8.6,51.5,4.6,57.6,4.6,60.4c0,6.2,16.3,24.9,36.4,24.9S77.5,66.5,77.5,60.4C77.5,57.6,73.5,51.5,67,46.1Z" fill="none" stroke="#2e7fa7" stroke-linecap="round" stroke-linejoin="round" stroke-width="7"/><path d="M154,46.1c4.9-7.6,7.6-17.6,5.6-19.2s-14.3,3.9-21.1,10.4a33.1,33.1,0,0,0-21,0c-6.8-6.5-18.9-12-21.1-10.4s.7,11.6,5.6,19.2c-6.5,5.5-10.4,11.6-10.4,14.4,0,6.2,16.3,24.9,36.4,24.9s36.4-18.8,36.4-24.9C164.4,57.6,160.4,51.5,154,46.1Z" fill="none" stroke="#2e7fa7" stroke-linecap="round" stroke-linejoin="round" stroke-width="7"/><path d="M240.9,46.1c4.9-7.6,7.6-17.6,5.6-19.2s-14.3,3.9-21.1,10.4a33.1,33.1,0,0,0-21,0c-6.8-6.5-18.9-12-21.1-10.4s.7,11.6,5.6,19.2c-6.5,5.5-10.4,11.6-10.4,14.4,0,6.2,16.3,24.9,36.4,24.9s36.4-18.8,36.4-24.9C251.4,57.6,247.4,51.5,240.9,46.1Z" fill="none" stroke="#2e7fa7" stroke-linecap="round" stroke-linejoin="round" stroke-width="7"/><path d="M67,118.1c4.9-7.6,7.6-17.6,5.6-19.2s-14.3,3.9-21.1,10.4a33.1,33.1,0,0,0-21,0c-6.8-6.5-18.9-12-21.1-10.4s.7,11.6,5.6,19.2c-6.5,5.5-10.4,11.6-10.4,14.4,0,6.2,16.3,24.9,36.4,24.9s36.4-18.8,36.4-24.9C77.5,129.7,73.5,123.6,67,118.1Z" fill="none" stroke="#2e7fa7" stroke-linecap="round" stroke-linejoin="round" stroke-width="7"/><path d="M154,118.1c4.9-7.6,7.6-17.6,5.6-19.2s-14.3,3.9-21.1,10.4a33.1,33.1,0,0,0-21,0c-6.8-6.5-18.9-12-21.1-10.4s.7,11.6,5.6,19.2c-6.5,5.5-10.4,11.6-10.4,14.4,0,6.2,16.3,24.9,36.4,24.9s36.4-18.8,36.4-24.9C164.4,129.7,160.4,123.6,154,118.1Z" fill="none" stroke="#2e7fa7" stroke-linecap="round" stroke-linejoin="round" stroke-width="7"/><path d="M240.9,118.1c4.9-7.6,7.6-17.6,5.6-19.2s-14.3,3.9-21.1,10.4a33.1,33.1,0,0,0-21,0c-6.8-6.5-18.9-12-21.1-10.4s.7,11.6,5.6,19.2c-6.5,5.5-10.4,11.6-10.4,14.4,0,6.2,16.3,24.9,36.4,24.9s36.4-18.8,36.4-24.9C251.4,129.7,247.4,123.6,240.9,118.1Z" fill="none" stroke="#2e7fa7" stroke-linecap="round" stroke-linejoin="round" stroke-width="7"/><path d="M67,190.2c4.9-7.6,7.6-17.6,5.6-19.2s-14.3,3.9-21.1,10.4a33.1,33.1,0,0,0-21,0c-6.8-6.5-18.9-12-21.1-10.4s.7,11.6,5.6,19.2c-6.5,5.5-10.4,11.6-10.4,14.4,0,6.2,16.3,24.9,36.4,24.9s36.4-18.8,36.4-24.9C77.5,201.7,73.5,195.6,67,190.2Z" fill="none" stroke="#2e7fa7" stroke-linecap="round" stroke-linejoin="round" stroke-width="7"/><path d="M154,190.2c4.9-7.6,7.6-17.6,5.6-19.2s-14.3,3.9-21.1,10.4a33.1,33.1,0,0,0-21,0c-6.8-6.5-18.9-12-21.1-10.4s.7,11.6,5.6,19.2c-6.5,5.5-10.4,11.6-10.4,14.4,0,6.2,16.3,24.9,36.4,24.9s36.4-18.8,36.4-24.9C164.4,201.7,160.4,195.6,154,190.2Z" fill="none" stroke="#2e7fa7" stroke-linecap="round" stroke-linejoin="round" stroke-width="7"/><path d="M240.9,190.2c4.9-7.6,7.6-17.6,5.6-19.2s-14.3,3.9-21.1,10.4a33.1,33.1,0,0,0-21,0c-6.8-6.5-18.9-12-21.1-10.4s.7,11.6,5.6,19.2c-6.5,5.5-10.4,11.6-10.4,14.4,0,6.2,16.3,24.9,36.4,24.9s36.4-18.8,36.4-24.9C251.4,201.7,247.4,195.6,240.9,190.2Z" fill="none" stroke="#2e7fa7" stroke-linecap="round" stroke-linejoin="round" stroke-width="7"/></svg>