<svg id="Layer_1" data-name="Layer 1" xmlns="http://www.w3.org/2000/svg" viewBox="0 0 122.33 75.66"><defs><style>.cls-1{fill:#8dcccc;}</style></defs><title>drop-down</title><path class="cls-1" d="M6.17,0h110a6.17,6.17,0,0,1,6.17,6.16h0a6.17,6.17,0,0,1-6.17,6.16H6.17A6.17,6.17,0,0,1,0,6.16H0A6.17,6.17,0,0,1,6.17,0Z"/><path class="cls-1" d="M6.17,31.67h110a6.17,6.17,0,0,1,6.17,6.16h0A6.17,6.17,0,0,1,116.16,44H6.17A6.17,6.17,0,0,1,0,37.83H0A6.17,6.17,0,0,1,6.17,31.67Z"/><path class="cls-1" d="M6.17,63.33h110a6.17,6.17,0,0,1,6.17,6.17h0a6.17,6.17,0,0,1-6.17,6.17H6.17A6.17,6.17,0,0,1,0,69.5H0A6.17,6.17,0,0,1,6.17,63.33Z"/></svg>