<svg id="Layer_1" data-name="Layer 1" xmlns="http://www.w3.org/2000/svg" width="256" height="256" viewBox="0 0 256 256"><title>foster</title><polygon points="128 4.5 4.9 90.6 251.1 90.6 128 4.5" fill="none" stroke="#2e7fa7" stroke-linecap="round" stroke-linejoin="round" stroke-width="9"/><path d="M19.6,90.6v161H86.4c-22.3-13-37.2-33.1-37.2-41.8,0-6,8.6-19.3,22.6-31.1-10.6-16.5-16.4-38.1-12.1-41.5s30.9,8.4,45.6,22.4a71.7,71.7,0,0,1,45.5,0c14.7-14,40.9-26,45.6-22.4s-1.5,25-12.1,41.5c14,11.8,22.6,25,22.6,31.1,0,8.5-14.9,28.7-37.3,41.8h66.9V90.6Z" fill="none" stroke="#2e7fa7" stroke-linecap="round" stroke-linejoin="round" stroke-width="9"/></svg>