<svg xmlns="http://www.w3.org/2000/svg" id="Layer_1" viewBox="0 0 109.82 109.82" width="109.82" height="109.82"><defs><style>.cls-1{fill:#fff}</style></defs><path d="M54.91 0a54.91 54.91 0 1 0 54.91 54.91A54.91 54.91 0 0 0 54.91 0zm18 32.38L68 32.27c-7.36 0-7.47 3.35-7.47 6v7.36h10.54a1.18 1.18 0 0 1 1.18 1.18v9.92a1.18 1.18 0 0 1-1.18 1.18H60.65v31.23l-12.71-.22v-31H37.81a.91.91 0 0 1-.91-.92V46a.56.56 0 0 1 .56-.56h10.48l-.11-9.26c0-7.92 5.13-15.5 11.6-15.5h12.31a1.18 1.18 0 0 1 1.18 1.18z" class="cls-1"/></svg>