<svg xmlns="http://www.w3.org/2000/svg" id="Layer_1" viewBox="0 0 109.82 109.82" width="109.82" height="109.82"><defs><style>.cls-1{fill:#fff}</style></defs><path d="M42.41 50.12a3.15 3.15 0 0 0 1-2.5 3 3 0 0 0-1-2.37 5.28 5.28 0 0 0-3.41-.86h-4.76V51h4.67a5.37 5.37 0 0 0 3.5-.88zm31.53 1.96a4.37 4.37 0 0 0-3.68 1.83 6.68 6.68 0 0 0-1.11 3.39h9.51a6.46 6.46 0 0 0-1.51-4 4.37 4.37 0 0 0-3.21-1.22zM39.69 57.6h-5.45v7h5.48a6 6 0 0 0 3.91-1 3.32 3.32 0 0 0 1.14-2.6 3.06 3.06 0 0 0-1.13-2.48 6.3 6.3 0 0 0-3.95-.92z" class="cls-1"/><path d="M54.91 0a54.91 54.91 0 1 0 54.91 54.91A54.91 54.91 0 0 0 54.91 0zm-.63 67.09a9.26 9.26 0 0 1-3.44 3.42 11.35 11.35 0 0 1-4.08 1.14 47 47 0 0 1-4.81.47H23.4V37.35h20.11q5 0 7.72 2.49a8.07 8.07 0 0 1 2.7 6.16A7.78 7.78 0 0 1 52 51.29a8.55 8.55 0 0 1-3.75 2.32 9.74 9.74 0 0 1 5.51 3.1 8.51 8.51 0 0 1 1.77 5.51 9.48 9.48 0 0 1-1.25 4.87zm34.2-5.17H69.13a6.25 6.25 0 0 0 1.26 3.46A4.58 4.58 0 0 0 74 67a5.48 5.48 0 0 0 2.7-.71 6.35 6.35 0 0 0 1.68-1.59l9.51.88A13.62 13.62 0 0 1 82.67 71q-3.08 1.65-8.85 1.65a18.11 18.11 0 0 1-7.87-1.41 11.57 11.57 0 0 1-4.76-4.48 13.53 13.53 0 0 1-1.88-7.22A12.69 12.69 0 0 1 63.09 50q3.78-3.65 10.45-3.65A18.59 18.59 0 0 1 82.08 48a11 11 0 0 1 4.77 4.74 17.34 17.34 0 0 1 1.64 8.09z" class="cls-1"/></svg>