<svg xmlns="http://www.w3.org/2000/svg" id="Layer_1" viewBox="0 0 109.82 109.82" width="109.82" height="109.82"><defs><style>.cls-1{fill:#fff}</style></defs><path d="M54.91 0a54.91 54.91 0 1 0 54.91 54.91A54.91 54.91 0 0 0 54.91 0zm6.44 72.5a12.62 12.62 0 0 1-10.56-4.9c-2.24 9.29-5.68 20.33-9.87 20.86-5.15-3.78 1.89-28 3.78-34.33-1.54-5.32-2.75-16.65 7.38-16.65 8.93 0 2.06 16.65 1.54 17.34-.13.17-.53 2.24-1.16 5.28 1.43 2.9 3.54 5.71 7.68 5.71 16.86 0 20.68-37.59-2.57-37.59s-24.2 20.6-18.88 28.49c.69 1.72-1.54 5.84-2.4 5.84S27.36 58 27.36 48.42c0-11.1 8.75-27.06 30.38-27.06 34.33-.01 30.38 51.14 3.61 51.14z" class="cls-1"/></svg>