<svg xmlns="http://www.w3.org/2000/svg" id="Layer_1" viewBox="0 0 109.82 109.82" width="109.82" height="109.82"><defs><style>.cls-1{fill:#fff}</style></defs><path d="M69.5 26.7H40.32A13.63 13.63 0 0 0 26.7 40.32V69.5a13.63 13.63 0 0 0 13.62 13.62H69.5A13.63 13.63 0 0 0 83.12 69.5V40.32A13.63 13.63 0 0 0 69.5 26.7zM54 74.41a18.92 18.92 0 1 1 18.94-18.93A18.94 18.94 0 0 1 54 74.41zm18.23-35.28a3.35 3.35 0 1 1 3.35-3.35 3.35 3.35 0 0 1-3.35 3.35z" class="cls-1"/><path d="M54 39.56a15.92 15.92 0 1 0 15.94 15.92A15.94 15.94 0 0 0 54 39.56z" class="cls-1"/><path d="M54.91 0a54.91 54.91 0 1 0 54.91 54.91A54.91 54.91 0 0 0 54.91 0zm31.21 69.5A16.63 16.63 0 0 1 69.5 86.12H40.32A16.63 16.63 0 0 1 23.7 69.5V40.32A16.63 16.63 0 0 1 40.32 23.7H69.5a16.63 16.63 0 0 1 16.62 16.62z" class="cls-1"/></svg>