<svg xmlns="http://www.w3.org/2000/svg" width="144" height="144" viewBox="0 0 109.8 109.8"><path fill="#357ea6" d="M69.5 26.7H40.3a13.6 13.6 0 0 0-13.6 13.6v29.2a13.6 13.6 0 0 0 13.6 13.6h29.2a13.6 13.6 0 0 0 13.6-13.6V40.3a13.6 13.6 0 0 0-13.6-13.6zM54 74.4a18.9 18.9 0 1 1 18.9-18.9A18.9 18.9 0 0 1 54 74.4zm18.2-35.3a3.3 3.3 0 1 1 3.3-3.3 3.3 3.3 0 0 1-3.3 3.3z"/><path fill="#357ea6" d="M54 39.6a15.9 15.9 0 1 0 15.9 15.9A15.9 15.9 0 0 0 54 39.6z"/><path fill="#357ea6" d="M54.9 0a54.9 54.9 0 1 0 54.9 54.9A54.9 54.9 0 0 0 54.9 0zm31.2 69.5a16.6 16.6 0 0 1-16.6 16.6H40.3a16.6 16.6 0 0 1-16.6-16.6V40.3a16.6 16.6 0 0 1 16.6-16.6h29.2a16.6 16.6 0 0 1 16.6 16.6z"/></svg>