<svg id="Layer_1" data-name="Layer 1" xmlns="http://www.w3.org/2000/svg" width="256" height="256" viewBox="0 0 256 256"><title>instagram</title><path d="M162,62.2H94A31.8,31.8,0,0,0,62.2,94v68A31.8,31.8,0,0,0,94,193.8h68A31.8,31.8,0,0,0,193.8,162V94A31.8,31.8,0,0,0,162,62.2ZM125.9,173.4A44.1,44.1,0,1,1,170,129.3,44.2,44.2,0,0,1,125.9,173.4Zm42.4-82.2a7.8,7.8,0,1,1,7.8-7.8A7.8,7.8,0,0,1,168.4,91.2Z" fill="#357ea6"/><path d="M125.9,92.2A37.1,37.1,0,1,0,163,129.3,37.2,37.2,0,0,0,125.9,92.2Z" fill="#357ea6"/><path d="M128,0A128,128,0,1,0,256,128,128,128,0,0,0,128,0Zm72.7,162A38.8,38.8,0,0,1,162,200.7H94A38.8,38.8,0,0,1,55.3,162V94A38.8,38.8,0,0,1,94,55.3h68A38.8,38.8,0,0,1,200.7,94Z" fill="#357ea6"/></svg>