<svg xmlns="http://www.w3.org/2000/svg" width="540.6" height="25.6" viewBox="0 0 540.6 25.6"><path fill="#357ea6" d="M20.8 1.9a13.2 13.2 0 0 1 5 4.6 11.6 11.6 0 0 1 0 12.6 13.3 13.3 0 0 1-5 4.6 14.5 14.5 0 0 1-6.9 1.7A14.5 14.5 0 0 1 7 23.7a13.3 13.3 0 0 1-5-4.6A11.6 11.6 0 0 1 2 6.5a13.2 13.2 0 0 1 5-4.6A14.6 14.6 0 0 1 13.8.2a14.6 14.6 0 0 1 7 1.7zM7.7 3.2a11.8 11.8 0 0 0-4.5 4 10.3 10.3 0 0 0 0 11.1 11.9 11.9 0 0 0 4.5 4.1 12.7 12.7 0 0 0 6.1 1.6 12.7 12.7 0 0 0 6.1-1.5 11.9 11.9 0 0 0 4.5-4.1 10.3 10.3 0 0 0 0-11.1 11.8 11.8 0 0 0-4.5-4 12.8 12.8 0 0 0-6.1-1.5 12.8 12.8 0 0 0-6.1 1.4zM29.8.4h19.6v1.5h-9v23.4h-1.6V1.9h-9zm20.6 0H70v1.5h-9v23.4h-1.6V1.9h-9zm42.3 24.9l-3.5-7.1H73.6l-3.4 7.1h-1.8L80.5.4h1.7l12.3 24.9zm-18.4-8.6h14.2L81.4 2.1zM129.5.4h1.7l-9.1 24.8h-1.6l-8.1-22.8-8.2 22.9h-1.6L93.5.4h1.8l8.1 23.1L111.6.4h1.6l8.2 23.1zm25.1 24.9l-3.5-7.1h-15.6l-3.5 7.1h-1.8L142.4.4h1.7l12.2 24.8zm-18.4-8.6h14.2l-7.2-14.6zM183.5 5a13.6 13.6 0 0 0-3.8-.6 5.6 5.6 0 0 0-2.9.6 2 2 0 0 0-1.1 1.8 2.3 2.3 0 0 0 .7 1.7 5.9 5.9 0 0 0 1.9 1.1l3.1 1a35.4 35.4 0 0 1 4.5 1.5 7.9 7.9 0 0 1 3 2.2 5.8 5.8 0 0 1 1.2 3.8 6.2 6.2 0 0 1-1.3 4 8.2 8.2 0 0 1-3.6 2.6 14.7 14.7 0 0 1-5.3.9 18.4 18.4 0 0 1-11.3-4l2.1-4.1a15.8 15.8 0 0 0 4.6 2.7 12.9 12.9 0 0 0 4.7 1 6.3 6.3 0 0 0 3.4-.8 2.3 2.3 0 0 0 1.2-2.1 2.3 2.3 0 0 0-.7-1.8 5.6 5.6 0 0 0-1.9-1.1l-3.1-1-4.4-1.5a7.6 7.6 0 0 1-2.9-2.2 5.6 5.6 0 0 1-1.2-3.8 6 6 0 0 1 1.2-3.8 8 8 0 0 1 3.3-2.2 14.4 14.4 0 0 1 5.3-.9 19 19 0 0 1 5.1.7 18 18 0 0 1 4.5 1.9l-2.1 4.2a20.1 20.1 0 0 0-4.2-1.8zM192 .4h21.8v4.2h-8.3v20.7h-5.2V4.6H192zm42.2 24.9l-4.6-7.4h-7v7.3h-5.1V.4h11.2q5.2 0 8 2.2a7.6 7.6 0 0 1 2.8 6.4 8.9 8.9 0 0 1-1.4 5 8.2 8.2 0 0 1-4 3.1l5.9 8.2zm-11.6-11.5h6a7.2 7.2 0 0 0 4.4-1.2 4.1 4.1 0 0 0 1.5-3.5 4 4 0 0 0-1.5-3.4 7.4 7.4 0 0 0-4.4-1.1h-6zm42.3 11.5l-2.4-5.3h-13.1l-2.4 5.3h-5.3L253.5.4h5.3l11.6 24.9zM251.3 16h9.4L256 5.5zM293.2.4l-9.8 16.7v8.1h-5.1v-8L268.4.4h5.2l7.3 11.7L288.1.4zm28.7 4.8a9.6 9.6 0 0 0-3.9-.9 9.5 9.5 0 0 0-4.5 1.1 8.3 8.3 0 0 0-3.3 3 8.2 8.2 0 0 0 0 8.5 8.5 8.5 0 0 0 3.3 3.1 9.4 9.4 0 0 0 4.5 1.1 10.2 10.2 0 0 0 3.8-.8 11.1 11.1 0 0 0 3.4-2.2l3 3.1a15.9 15.9 0 0 1-4.9 3.1 14.7 14.7 0 0 1-5.7 1.2 14.8 14.8 0 0 1-7.1-1.7 13 13 0 0 1-5-4.6 12 12 0 0 1-1.8-6.5 11.7 11.7 0 0 1 1.9-6.5 13.1 13.1 0 0 1 5.1-4.6 15.8 15.8 0 0 1 12.8-.6 13.9 13.9 0 0 1 4.7 3l-3 3.5a10 10 0 0 0-3.3-2.3zm30.2 20.1l-2.4-5.3h-13.1l-2.4 5.3h-5.3L340.7.4h5.3l11.6 24.9zM338.5 16h9.4l-4.7-10.5zM355.1.4H377v4.2h-8.3v20.7h-5.2V4.6h-8.3zm54.2 24.9l-6.3-8.4h-10.1v8.3h-1.6V.4h9.4q5 0 7.7 2.1a7.3 7.3 0 0 1 2.7 6 7.9 7.9 0 0 1-1.7 5.2 8.6 8.6 0 0 1-4.9 2.8l6.7 8.7zm-8.5-9.7a10.3 10.3 0 0 0 6.5-1.8 6.1 6.1 0 0 0 2.3-5.1 5.9 5.9 0 0 0-2.3-5 10.5 10.5 0 0 0-6.5-1.7h-7.9v13.5zM418.9.4h17.2v1.5h-15.6v9.9h13.9v1.5h-13.9v10.5h16.1v1.5h-17.7zm35.4 1.8a15.3 15.3 0 0 0-3.7-.5 9.6 9.6 0 0 0-5 1.3 3.5 3.5 0 0 0-1.9 3.1 3.9 3.9 0 0 0 1 2.8 6.6 6.6 0 0 0 2.4 1.7l3.9 1.3a36.5 36.5 0 0 1 4.4 1.5 7.3 7.3 0 0 1 2.8 2.1 5.4 5.4 0 0 1 1.1 3.6 5.4 5.4 0 0 1-1.1 3.4 7.3 7.3 0 0 1-3.3 2.3 13.7 13.7 0 0 1-4.9.8 14.2 14.2 0 0 1-5.2-1 13.4 13.4 0 0 1-4.3-2.6l.8-1.3a11.2 11.2 0 0 0 4 2.5 13.2 13.2 0 0 0 4.7.9 9.9 9.9 0 0 0 5.5-1.3 4.1 4.1 0 0 0 2-3.6 4 4 0 0 0-1-2.8 6.8 6.8 0 0 0-2.5-1.7l-3.9-1.3-4.4-1.5a7.2 7.2 0 0 1-2.8-2 5.3 5.3 0 0 1-1.1-3.5A4.8 4.8 0 0 1 443 3a6.9 6.9 0 0 1 3.1-2.1 13.5 13.5 0 0 1 4.6-.7 15.6 15.6 0 0 1 4.1.6 13.9 13.9 0 0 1 3.6 1.5l-.7 1.4a11.7 11.7 0 0 0-3.4-1.5zm27.8.3a13.2 13.2 0 0 0-10.7.7 11.7 11.7 0 0 0-4.5 4.1 10.3 10.3 0 0 0 0 11.2 11.9 11.9 0 0 0 4.5 4.1 12.8 12.8 0 0 0 6.1 1.5 13 13 0 0 0 8.4-3.1l1 1a14 14 0 0 1-4.3 2.6 14.8 14.8 0 0 1-12-.8 13.2 13.2 0 0 1-5-4.6 11.7 11.7 0 0 1 0-12.6 13.2 13.2 0 0 1 5-4.6 14.8 14.8 0 0 1 16.3 1.7l-1 1.1a12.6 12.6 0 0 0-3.8-2.3zm14.7 19.2a11.1 11.1 0 0 0 13.5 0 8.4 8.4 0 0 0 2.4-6.5V.4h1.6v14.8a9.9 9.9 0 0 1-2.8 7.5q-2.8 2.7-8 2.7t-8-2.7a9.8 9.8 0 0 1-2.8-7.5V.4h1.6v14.8a8.4 8.4 0 0 0 2.5 6.5zM522.9.4h17.2v1.5h-15.6v9.9h13.9v1.5h-13.9v10.5h16.1v1.5h-17.7z"/></svg>